# xmcd
#
# Track frame offsets:
#       150
#       17042
#       36357
#       50134
#       68274
#       82813
#       99037
#       112765
#       127069
#       143571
#       159793
#       175523
#       188585
#       205594
#       220597
#       233476
#       252734
#       267710
#       282813
#       298745
#       311948
#       328003
#
# Disc length: 4799 seconds
#
# Revision: 0
# Processed by: cddbd v1.4PL0 Copyright (c) Steve Scherf et al.
# Submitted via: WhereIsIt 3.26
#
DISCID=2d12bd16
DTITLE=Alabama - For The Record -- Disc 2
DYEAR=1900
DGENRE=
TTITLE0=Touch Me When We're Dancing
TTITLE1=You've Got The Touch
TTITLE2=Face To Face
TTITLE3=Fallin' Again
TTITLE4=Soung Of The South
TTITLE5=If I Had You
TTITLE6=High Cotton
TTITLE7=Southern Star
TTITLE8=Jukebox In My Mind
TTITLE9=Forever's As Far As I'll Go
TTITLE10=Down Home
TTITLE11=Here We Are
TTITLE12=Then Again
TTITLE13=Born Country
TTITLE14=I'm In A Hurry
TTITLE15=Once Upon A Lifetime
TTITLE16=Hometown Honeymoon
TTITLE17=Reckless
TTITLE18=Give Me One More Shot
TTITLE19=She Ain't Your Ordinary Girl
TTITLE20=In Pictures
TTITLE21=Sad Lookin' Moon
EXTD=
EXTT0=
EXTT1=
EXTT2=
EXTT3=
EXTT4=
EXTT5=
EXTT6=
EXTT7=
EXTT8=
EXTT9=
EXTT10=
EXTT11=
EXTT12=
EXTT13=
EXTT14=
EXTT15=
EXTT16=
EXTT17=
EXTT18=
EXTT19=
EXTT20=
EXTT21=
PLAYORDER=
